<svg xmlns="http://www.w3.org/2000/svg" width="160" height="160" viewBox="0 0 160 160">
  <defs>
    <linearGradient id="g1" x1="0" y1="0" x2="1" y2="1">
      <stop offset="0" stop-color="#16a34a"/>
      <stop offset="1" stop-color="#22c55e"/>
    </linearGradient>
    <linearGradient id="g2" x1="0" y1="1" x2="1" y2="0">
      <stop offset="0" stop-color="#a3e635"/>
      <stop offset="1" stop-color="#86efac"/>
    </linearGradient>
  </defs>
  <circle cx="80" cy="80" r="72" fill="url(#g1)"/>
  <g transform="translate(40,36)">
    <path d="M24 8c-8 6-14 16-14 28 0 18 12 30 26 30 14 0 26-12 26-26 0-4-1-8-3-12-12 10-26 9-35-2 5-6 12-10 20-12-6-2-13-2-20 0z" fill="url(#g2)"/>
    <path d="M56 52c-10 8-22 12-32 12-8 0-15-2-22-6 6 10 18 18 32 18 20 0 36-16 36-36 0-2 0-3 0-4-3 7-8 12-14 16z" fill="#ffffff22"/>
  </g>
  <g transform="translate(20,110)">
    <rect x="0" y="0" rx="14" ry="14" width="120" height="28" fill="#ffffff22"/>
  </g>
</svg>
